{
	"patcher" : 	{
		"fileversion" : 1,
		"appversion" : 		{
			"major" : 8,
			"minor" : 1,
			"revision" : 4,
			"architecture" : "x64",
			"modernui" : 1
		}
,
		"classnamespace" : "box",
		"rect" : [ 101.0, 436.0, 1019.0, 652.0 ],
		"bglocked" : 0,
		"openinpresentation" : 1,
		"default_fontsize" : 12.0,
		"default_fontface" : 0,
		"default_fontname" : "Arial",
		"gridonopen" : 1,
		"gridsize" : [ 15.0, 15.0 ],
		"gridsnaponopen" : 1,
		"objectsnaponopen" : 1,
		"statusbarvisible" : 2,
		"toolbarvisible" : 1,
		"lefttoolbarpinned" : 0,
		"toptoolbarpinned" : 0,
		"righttoolbarpinned" : 0,
		"bottomtoolbarpinned" : 0,
		"toolbars_unpinned_last_save" : 0,
		"tallnewobj" : 0,
		"boxanimatetime" : 200,
		"enablehscroll" : 1,
		"enablevscroll" : 1,
		"devicewidth" : 0.0,
		"description" : "",
		"digest" : "",
		"tags" : "",
		"style" : "",
		"subpatcher_template" : "",
		"assistshowspatchername" : 0,
		"boxes" : [ 			{
				"box" : 				{
					"color" : [ 0.749019607843137, 0.749019607843137, 0.749019607843137, 0.0 ],
					"hsegments" : 8,
					"id" : "obj-132",
					"maxclass" : "mira.multitouch",
					"numinlets" : 1,
					"numoutlets" : 1,
					"outlettype" : [ "" ],
					"patching_rect" : [ 597.016773111290377, 252.597595000000013, 377.500000000000114, 24.402404999999987 ],
					"pinch_enabled" : 0,
					"presentation" : 1,
					"presentation_rect" : [ 13.0, 223.0, 472.0, 64.0 ],
					"rotate_enabled" : 0,
					"swipe_enabled" : 0,
					"swipe_touch_count" : 0,
					"tap_enabled" : 0,
					"tap_tap_count" : 0,
					"tap_touch_count" : 0,
					"vsegments" : 2
				}

			}
, 			{
				"box" : 				{
					"id" : "obj-110",
					"maxclass" : "message",
					"numinlets" : 2,
					"numoutlets" : 1,
					"outlettype" : [ "" ],
					"patching_rect" : [ 507.0, 380.0, 50.0, 22.0 ],
					"text" : "58"
				}

			}
, 			{
				"box" : 				{
					"activetextcolor" : [ 0.996078431372549, 0.996078431372549, 0.996078431372549, 1.0 ],
					"activetextoncolor" : [ 0.996078431372549, 0.996078431372549, 0.996078431372549, 1.0 ],
					"fontsize" : 8.0,
					"id" : "obj-98",
					"maxclass" : "live.text",
					"mode" : 0,
					"numinlets" : 1,
					"numoutlets" : 2,
					"outlettype" : [ "", "" ],
					"parameter_enable" : 1,
					"patching_rect" : [ 964.738995333512776, 402.0, 44.0, 15.0 ],
					"presentation" : 1,
					"presentation_rect" : [ 426.0, 256.0, 59.0, 31.0 ],
					"saved_attribute_attributes" : 					{
						"valueof" : 						{
							"parameter_longname" : "track[7]",
							"parameter_invisible" : 2,
							"parameter_mmax" : 1,
							"parameter_shortname" : "track[7]",
							"parameter_enum" : [ "val1", "val2" ],
							"parameter_defer" : 1,
							"parameter_type" : 2,
							"parameter_linknames" : 1
						}

					}
,
					"text" : "-",
					"textcolor" : [ 0.996078431372549, 0.996078431372549, 0.996078431372549, 1.0 ],
					"textoffcolor" : [ 0.996078431372549, 0.996078431372549, 0.996078431372549, 1.0 ],
					"varname" : "track[7]"
				}

			}
, 			{
				"box" : 				{
					"activetextcolor" : [ 0.996078431372549, 0.996078431372549, 0.996078431372549, 1.0 ],
					"activetextoncolor" : [ 0.996078431372549, 0.996078431372549, 0.996078431372549, 1.0 ],
					"fontsize" : 8.0,
					"id" : "obj-99",
					"maxclass" : "live.text",
					"mode" : 0,
					"numinlets" : 1,
					"numoutlets" : 2,
					"outlettype" : [ "", "" ],
					"parameter_enable" : 1,
					"patching_rect" : [ 917.683439777957233, 402.0, 44.0, 15.0 ],
					"presentation" : 1,
					"presentation_rect" : [ 367.0, 256.0, 59.0, 31.0 ],
					"saved_attribute_attributes" : 					{
						"valueof" : 						{
							"parameter_longname" : "track[6]",
							"parameter_invisible" : 2,
							"parameter_mmax" : 1,
							"parameter_shortname" : "track[6]",
							"parameter_enum" : [ "val1", "val2" ],
							"parameter_defer" : 1,
							"parameter_type" : 2,
							"parameter_linknames" : 1
						}

					}
,
					"text" : "-",
					"textcolor" : [ 0.996078431372549, 0.996078431372549, 0.996078431372549, 1.0 ],
					"textoffcolor" : [ 0.996078431372549, 0.996078431372549, 0.996078431372549, 1.0 ],
					"varname" : "track[6]"
				}

			}
, 			{
				"box" : 				{
					"activetextcolor" : [ 0.996078431372549, 0.996078431372549, 0.996078431372549, 1.0 ],
					"activetextoncolor" : [ 0.996078431372549, 0.996078431372549, 0.996078431372549, 1.0 ],
					"fontsize" : 8.0,
					"id" : "obj-100",
					"maxclass" : "live.text",
					"mode" : 0,
					"numinlets" : 1,
					"numoutlets" : 2,
					"outlettype" : [ "", "" ],
					"parameter_enable" : 1,
					"patching_rect" : [ 870.62788422240169, 402.0, 44.0, 15.0 ],
					"presentation" : 1,
					"presentation_rect" : [ 308.0, 256.0, 59.0, 31.0 ],
					"saved_attribute_attributes" : 					{
						"valueof" : 						{
							"parameter_longname" : "track[5]",
							"parameter_invisible" : 2,
							"parameter_mmax" : 1,
							"parameter_shortname" : "track[5]",
							"parameter_enum" : [ "val1", "val2" ],
							"parameter_defer" : 1,
							"parameter_type" : 2,
							"parameter_linknames" : 1
						}

					}
,
					"text" : "-",
					"textcolor" : [ 0.996078431372549, 0.996078431372549, 0.996078431372549, 1.0 ],
					"textoffcolor" : [ 0.996078431372549, 0.996078431372549, 0.996078431372549, 1.0 ],
					"varname" : "track[5]"
				}

			}
, 			{
				"box" : 				{
					"activetextcolor" : [ 0.996078431372549, 0.996078431372549, 0.996078431372549, 1.0 ],
					"activetextoncolor" : [ 0.996078431372549, 0.996078431372549, 0.996078431372549, 1.0 ],
					"fontsize" : 8.0,
					"id" : "obj-101",
					"maxclass" : "live.text",
					"mode" : 0,
					"numinlets" : 1,
					"numoutlets" : 2,
					"outlettype" : [ "", "" ],
					"parameter_enable" : 1,
					"patching_rect" : [ 823.572328666846033, 402.0, 44.0, 15.0 ],
					"presentation" : 1,
					"presentation_rect" : [ 249.0, 256.0, 59.0, 31.0 ],
					"saved_attribute_attributes" : 					{
						"valueof" : 						{
							"parameter_longname" : "track[4]",
							"parameter_invisible" : 2,
							"parameter_mmax" : 1,
							"parameter_shortname" : "track[4]",
							"parameter_enum" : [ "val1", "val2" ],
							"parameter_defer" : 1,
							"parameter_type" : 2,
							"parameter_linknames" : 1
						}

					}
,
					"text" : "-",
					"textcolor" : [ 0.996078431372549, 0.996078431372549, 0.996078431372549, 1.0 ],
					"textoffcolor" : [ 0.996078431372549, 0.996078431372549, 0.996078431372549, 1.0 ],
					"varname" : "track[4]"
				}

			}
, 			{
				"box" : 				{
					"activetextcolor" : [ 0.996078431372549, 0.996078431372549, 0.996078431372549, 1.0 ],
					"activetextoncolor" : [ 0.996078431372549, 0.996078431372549, 0.996078431372549, 1.0 ],
					"fontsize" : 8.0,
					"id" : "obj-103",
					"maxclass" : "live.text",
					"mode" : 0,
					"numinlets" : 1,
					"numoutlets" : 2,
					"outlettype" : [ "", "" ],
					"parameter_enable" : 1,
					"patching_rect" : [ 776.516773111290604, 402.0, 44.0, 15.0 ],
					"presentation" : 1,
					"presentation_rect" : [ 189.777777777777828, 256.0, 59.0, 31.0 ],
					"saved_attribute_attributes" : 					{
						"valueof" : 						{
							"parameter_longname" : "track[3]",
							"parameter_invisible" : 2,
							"parameter_mmax" : 1,
							"parameter_shortname" : "track[3]",
							"parameter_enum" : [ "val1", "val2" ],
							"parameter_defer" : 1,
							"parameter_type" : 2,
							"parameter_linknames" : 1
						}

					}
,
					"text" : "-",
					"textcolor" : [ 0.996078431372549, 0.996078431372549, 0.996078431372549, 1.0 ],
					"textoffcolor" : [ 0.996078431372549, 0.996078431372549, 0.996078431372549, 1.0 ],
					"varname" : "track[3]"
				}

			}
, 			{
				"box" : 				{
					"activetextcolor" : [ 0.996078431372549, 0.996078431372549, 0.996078431372549, 1.0 ],
					"activetextoncolor" : [ 0.996078431372549, 0.996078431372549, 0.996078431372549, 1.0 ],
					"fontsize" : 8.0,
					"id" : "obj-104",
					"maxclass" : "live.text",
					"mode" : 0,
					"numinlets" : 1,
					"numoutlets" : 2,
					"outlettype" : [ "", "" ],
					"parameter_enable" : 1,
					"patching_rect" : [ 729.461217555734947, 402.0, 44.0, 15.0 ],
					"presentation" : 1,
					"presentation_rect" : [ 131.0, 256.0, 59.0, 31.0 ],
					"saved_attribute_attributes" : 					{
						"valueof" : 						{
							"parameter_longname" : "track[2]",
							"parameter_invisible" : 2,
							"parameter_mmax" : 1,
							"parameter_shortname" : "track[2]",
							"parameter_enum" : [ "val1", "val2" ],
							"parameter_defer" : 1,
							"parameter_type" : 2,
							"parameter_linknames" : 1
						}

					}
,
					"text" : "-",
					"textcolor" : [ 0.996078431372549, 0.996078431372549, 0.996078431372549, 1.0 ],
					"textoffcolor" : [ 0.996078431372549, 0.996078431372549, 0.996078431372549, 1.0 ],
					"varname" : "track[2]"
				}

			}
, 			{
				"box" : 				{
					"activetextcolor" : [ 0.996078431372549, 0.996078431372549, 0.996078431372549, 1.0 ],
					"activetextoncolor" : [ 0.996078431372549, 0.996078431372549, 0.996078431372549, 1.0 ],
					"fontsize" : 8.0,
					"id" : "obj-105",
					"maxclass" : "live.text",
					"mode" : 0,
					"numinlets" : 1,
					"numoutlets" : 2,
					"outlettype" : [ "", "" ],
					"parameter_enable" : 1,
					"patching_rect" : [ 681.350106444623862, 402.0, 44.0, 15.0 ],
					"presentation" : 1,
					"presentation_rect" : [ 72.0, 256.0, 59.0, 31.0 ],
					"saved_attribute_attributes" : 					{
						"valueof" : 						{
							"parameter_longname" : "track[1]",
							"parameter_invisible" : 2,
							"parameter_mmax" : 1,
							"parameter_shortname" : "track[1]",
							"parameter_enum" : [ "val1", "val2" ],
							"parameter_defer" : 1,
							"parameter_type" : 2,
							"parameter_linknames" : 1
						}

					}
,
					"text" : "-",
					"textcolor" : [ 0.996078431372549, 0.996078431372549, 0.996078431372549, 1.0 ],
					"textoffcolor" : [ 0.996078431372549, 0.996078431372549, 0.996078431372549, 1.0 ],
					"varname" : "track[1]"
				}

			}
, 			{
				"box" : 				{
					"activetextcolor" : [ 0.996078431372549, 0.996078431372549, 0.996078431372549, 1.0 ],
					"activetextoncolor" : [ 0.996078431372549, 0.996078431372549, 0.996078431372549, 1.0 ],
					"fontsize" : 8.0,
					"id" : "obj-108",
					"maxclass" : "live.text",
					"mode" : 0,
					"numinlets" : 1,
					"numoutlets" : 2,
					"outlettype" : [ "", "" ],
					"parameter_enable" : 1,
					"patching_rect" : [ 635.350106444623862, 402.0, 44.0, 15.0 ],
					"presentation" : 1,
					"presentation_rect" : [ 14.0, 256.0, 59.0, 31.0 ],
					"saved_attribute_attributes" : 					{
						"valueof" : 						{
							"parameter_longname" : "track[0]",
							"parameter_invisible" : 2,
							"parameter_mmax" : 1,
							"parameter_shortname" : "track[0]",
							"parameter_enum" : [ "val1", "val2" ],
							"parameter_defer" : 1,
							"parameter_type" : 2,
							"parameter_linknames" : 1
						}

					}
,
					"text" : "-",
					"textcolor" : [ 0.996078431372549, 0.996078431372549, 0.996078431372549, 1.0 ],
					"textoffcolor" : [ 0.996078431372549, 0.996078431372549, 0.996078431372549, 1.0 ],
					"varname" : "track[0]"
				}

			}
, 			{
				"box" : 				{
					"id" : "obj-144",
					"maxclass" : "newobj",
					"numinlets" : 2,
					"numoutlets" : 1,
					"outlettype" : [ "int" ],
					"patching_rect" : [ 642.350106444623748, 324.699996999999939, 37.0, 22.0 ],
					"text" : "* 127"
				}

			}
, 			{
				"box" : 				{
					"id" : "obj-143",
					"maxclass" : "newobj",
					"numinlets" : 2,
					"numoutlets" : 1,
					"outlettype" : [ "int" ],
					"patching_rect" : [ 597.016773111290377, 324.699996999999939, 32.0, 22.0 ],
					"text" : "+ 47"
				}

			}
, 			{
				"box" : 				{
					"fontname" : "Arial",
					"fontsize" : 12.0,
					"id" : "obj-102",
					"maxclass" : "newobj",
					"numinlets" : 2,
					"numoutlets" : 1,
					"outlettype" : [ "" ],
					"patching_rect" : [ 597.016773111290377, 355.699996999999996, 64.333333333333371, 22.0 ],
					"text" : "pack i i"
				}

			}
, 			{
				"box" : 				{
					"fontname" : "Arial",
					"fontsize" : 12.0,
					"id" : "obj-140",
					"maxclass" : "newobj",
					"numinlets" : 1,
					"numoutlets" : 4,
					"outlettype" : [ "", "", "", "" ],
					"patching_rect" : [ 597.016773111290377, 296.200012000000015, 87.0, 22.0 ],
					"text" : "mira.mt.region"
				}

			}
, 			{
				"box" : 				{
					"activetextcolor" : [ 0.996078431372549, 0.996078431372549, 0.996078431372549, 1.0 ],
					"activetextoncolor" : [ 0.996078431372549, 0.996078431372549, 0.996078431372549, 1.0 ],
					"fontsize" : 8.0,
					"id" : "obj-12",
					"maxclass" : "live.text",
					"mode" : 0,
					"numinlets" : 1,
					"numoutlets" : 2,
					"outlettype" : [ "", "" ],
					"parameter_enable" : 1,
					"patching_rect" : [ 926.405662000179291, 229.0, 44.0, 15.0 ],
					"presentation" : 1,
					"presentation_rect" : [ 426.0, 223.0, 59.0, 31.0 ],
					"saved_attribute_attributes" : 					{
						"valueof" : 						{
							"parameter_longname" : "device_select[7]",
							"parameter_invisible" : 2,
							"parameter_mmax" : 1,
							"parameter_shortname" : "device_select[7]",
							"parameter_enum" : [ "val1", "val2" ],
							"parameter_defer" : 1,
							"parameter_type" : 2,
							"parameter_linknames" : 1
						}

					}
,
					"text" : "-",
					"textcolor" : [ 0.996078431372549, 0.996078431372549, 0.996078431372549, 1.0 ],
					"textoffcolor" : [ 0.996078431372549, 0.996078431372549, 0.996078431372549, 1.0 ],
					"varname" : "device_select[7]"
				}

			}
, 			{
				"box" : 				{
					"activetextcolor" : [ 0.996078431372549, 0.996078431372549, 0.996078431372549, 1.0 ],
					"activetextoncolor" : [ 0.996078431372549, 0.996078431372549, 0.996078431372549, 1.0 ],
					"fontsize" : 8.0,
					"id" : "obj-87",
					"maxclass" : "live.text",
					"mode" : 0,
					"numinlets" : 1,
					"numoutlets" : 2,
					"outlettype" : [ "", "" ],
					"parameter_enable" : 1,
					"patching_rect" : [ 879.350106444623748, 229.0, 44.0, 15.0 ],
					"presentation" : 1,
					"presentation_rect" : [ 367.0, 223.0, 59.0, 31.0 ],
					"saved_attribute_attributes" : 					{
						"valueof" : 						{
							"parameter_longname" : "device_select[6]",
							"parameter_invisible" : 2,
							"parameter_mmax" : 1,
							"parameter_shortname" : "device_select[6]",
							"parameter_enum" : [ "val1", "val2" ],
							"parameter_defer" : 1,
							"parameter_type" : 2,
							"parameter_linknames" : 1
						}

					}
,
					"text" : "-",
					"textcolor" : [ 0.996078431372549, 0.996078431372549, 0.996078431372549, 1.0 ],
					"textoffcolor" : [ 0.996078431372549, 0.996078431372549, 0.996078431372549, 1.0 ],
					"varname" : "device_select[6]"
				}

			}
, 			{
				"box" : 				{
					"activetextcolor" : [ 0.996078431372549, 0.996078431372549, 0.996078431372549, 1.0 ],
					"activetextoncolor" : [ 0.996078431372549, 0.996078431372549, 0.996078431372549, 1.0 ],
					"fontsize" : 8.0,
					"id" : "obj-88",
					"maxclass" : "live.text",
					"mode" : 0,
					"numinlets" : 1,
					"numoutlets" : 2,
					"outlettype" : [ "", "" ],
					"parameter_enable" : 1,
					"patching_rect" : [ 832.294550889068205, 229.0, 44.0, 15.0 ],
					"presentation" : 1,
					"presentation_rect" : [ 308.0, 223.0, 59.0, 31.0 ],
					"saved_attribute_attributes" : 					{
						"valueof" : 						{
							"parameter_longname" : "device_select[5]",
							"parameter_invisible" : 2,
							"parameter_mmax" : 1,
							"parameter_shortname" : "device_select[5]",
							"parameter_enum" : [ "val1", "val2" ],
							"parameter_defer" : 1,
							"parameter_type" : 2,
							"parameter_linknames" : 1
						}

					}
,
					"text" : "-",
					"textcolor" : [ 0.996078431372549, 0.996078431372549, 0.996078431372549, 1.0 ],
					"textoffcolor" : [ 0.996078431372549, 0.996078431372549, 0.996078431372549, 1.0 ],
					"varname" : "device_select[5]"
				}

			}
, 			{
				"box" : 				{
					"activetextcolor" : [ 0.996078431372549, 0.996078431372549, 0.996078431372549, 1.0 ],
					"activetextoncolor" : [ 0.996078431372549, 0.996078431372549, 0.996078431372549, 1.0 ],
					"fontsize" : 8.0,
					"id" : "obj-89",
					"maxclass" : "live.text",
					"mode" : 0,
					"numinlets" : 1,
					"numoutlets" : 2,
					"outlettype" : [ "", "" ],
					"parameter_enable" : 1,
					"patching_rect" : [ 785.238995333512548, 229.0, 44.0, 15.0 ],
					"presentation" : 1,
					"presentation_rect" : [ 249.0, 223.0, 59.0, 31.0 ],
					"saved_attribute_attributes" : 					{
						"valueof" : 						{
							"parameter_longname" : "device_select[4]",
							"parameter_invisible" : 2,
							"parameter_mmax" : 1,
							"parameter_shortname" : "device_select[4]",
							"parameter_enum" : [ "val1", "val2" ],
							"parameter_defer" : 1,
							"parameter_type" : 2,
							"parameter_linknames" : 1
						}

					}
,
					"text" : "-",
					"textcolor" : [ 0.996078431372549, 0.996078431372549, 0.996078431372549, 1.0 ],
					"textoffcolor" : [ 0.996078431372549, 0.996078431372549, 0.996078431372549, 1.0 ],
					"varname" : "device_select[4]"
				}

			}
, 			{
				"box" : 				{
					"activetextcolor" : [ 0.996078431372549, 0.996078431372549, 0.996078431372549, 1.0 ],
					"activetextoncolor" : [ 0.996078431372549, 0.996078431372549, 0.996078431372549, 1.0 ],
					"fontsize" : 8.0,
					"id" : "obj-90",
					"maxclass" : "live.text",
					"mode" : 0,
					"numinlets" : 1,
					"numoutlets" : 2,
					"outlettype" : [ "", "" ],
					"parameter_enable" : 1,
					"patching_rect" : [ 738.183439777957119, 229.0, 44.0, 15.0 ],
					"presentation" : 1,
					"presentation_rect" : [ 190.0, 223.0, 59.0, 31.0 ],
					"saved_attribute_attributes" : 					{
						"valueof" : 						{
							"parameter_longname" : "device_select[3]",
							"parameter_invisible" : 2,
							"parameter_mmax" : 1,
							"parameter_shortname" : "device_select[3]",
							"parameter_enum" : [ "val1", "val2" ],
							"parameter_defer" : 1,
							"parameter_type" : 2,
							"parameter_linknames" : 1
						}

					}
,
					"text" : "-",
					"textcolor" : [ 0.996078431372549, 0.996078431372549, 0.996078431372549, 1.0 ],
					"textoffcolor" : [ 0.996078431372549, 0.996078431372549, 0.996078431372549, 1.0 ],
					"varname" : "device_select[3]"
				}

			}
, 			{
				"box" : 				{
					"activetextcolor" : [ 0.996078431372549, 0.996078431372549, 0.996078431372549, 1.0 ],
					"activetextoncolor" : [ 0.996078431372549, 0.996078431372549, 0.996078431372549, 1.0 ],
					"fontsize" : 8.0,
					"id" : "obj-91",
					"maxclass" : "live.text",
					"mode" : 0,
					"numinlets" : 1,
					"numoutlets" : 2,
					"outlettype" : [ "", "" ],
					"parameter_enable" : 1,
					"patching_rect" : [ 691.127884222401462, 229.0, 44.0, 15.0 ],
					"presentation" : 1,
					"presentation_rect" : [ 131.0, 223.0, 59.0, 31.0 ],
					"saved_attribute_attributes" : 					{
						"valueof" : 						{
							"parameter_longname" : "device_select[2]",
							"parameter_invisible" : 2,
							"parameter_mmax" : 1,
							"parameter_shortname" : "device_select[2]",
							"parameter_enum" : [ "val1", "val2" ],
							"parameter_defer" : 1,
							"parameter_type" : 2,
							"parameter_linknames" : 1
						}

					}
,
					"text" : "-",
					"textcolor" : [ 0.996078431372549, 0.996078431372549, 0.996078431372549, 1.0 ],
					"textoffcolor" : [ 0.996078431372549, 0.996078431372549, 0.996078431372549, 1.0 ],
					"varname" : "device_select[2]"
				}

			}
, 			{
				"box" : 				{
					"activetextcolor" : [ 0.996078431372549, 0.996078431372549, 0.996078431372549, 1.0 ],
					"activetextoncolor" : [ 0.996078431372549, 0.996078431372549, 0.996078431372549, 1.0 ],
					"fontsize" : 8.0,
					"id" : "obj-92",
					"maxclass" : "live.text",
					"mode" : 0,
					"numinlets" : 1,
					"numoutlets" : 2,
					"outlettype" : [ "", "" ],
					"parameter_enable" : 1,
					"patching_rect" : [ 643.016773111290377, 229.0, 44.0, 15.0 ],
					"presentation" : 1,
					"presentation_rect" : [ 72.0, 223.0, 59.0, 31.0 ],
					"saved_attribute_attributes" : 					{
						"valueof" : 						{
							"parameter_longname" : "device_select[1]",
							"parameter_invisible" : 2,
							"parameter_mmax" : 1,
							"parameter_shortname" : "device_select[1]",
							"parameter_enum" : [ "val1", "val2" ],
							"parameter_defer" : 1,
							"parameter_type" : 2,
							"parameter_linknames" : 1
						}

					}
,
					"text" : "-",
					"textcolor" : [ 0.996078431372549, 0.996078431372549, 0.996078431372549, 1.0 ],
					"textoffcolor" : [ 0.996078431372549, 0.996078431372549, 0.996078431372549, 1.0 ],
					"varname" : "device_select[1]"
				}

			}
, 			{
				"box" : 				{
					"activetextcolor" : [ 0.996078431372549, 0.996078431372549, 0.996078431372549, 1.0 ],
					"activetextoncolor" : [ 0.996078431372549, 0.996078431372549, 0.996078431372549, 1.0 ],
					"fontsize" : 8.0,
					"id" : "obj-94",
					"maxclass" : "live.text",
					"mode" : 0,
					"numinlets" : 1,
					"numoutlets" : 2,
					"outlettype" : [ "", "" ],
					"parameter_enable" : 1,
					"patching_rect" : [ 597.016773111290377, 229.0, 44.0, 15.0 ],
					"presentation" : 1,
					"presentation_rect" : [ 13.0, 223.0, 59.0, 31.0 ],
					"saved_attribute_attributes" : 					{
						"valueof" : 						{
							"parameter_longname" : "device_select[0]",
							"parameter_invisible" : 2,
							"parameter_mmax" : 1,
							"parameter_shortname" : "device_select[0]",
							"parameter_enum" : [ "val1", "val2" ],
							"parameter_defer" : 1,
							"parameter_type" : 2,
							"parameter_linknames" : 1
						}

					}
,
					"text" : "-",
					"textcolor" : [ 0.996078431372549, 0.996078431372549, 0.996078431372549, 1.0 ],
					"textoffcolor" : [ 0.996078431372549, 0.996078431372549, 0.996078431372549, 1.0 ],
					"varname" : "device_select[0]"
				}

			}
, 			{
				"box" : 				{
					"activetextcolor" : [ 0.996078431372549, 0.996078431372549, 0.996078431372549, 1.0 ],
					"activetextoncolor" : [ 0.996078431372549, 0.996078431372549, 0.996078431372549, 1.0 ],
					"fontsize" : 8.0,
					"id" : "obj-106",
					"maxclass" : "live.text",
					"mode" : 0,
					"numinlets" : 1,
					"numoutlets" : 2,
					"outlettype" : [ "", "" ],
					"parameter_enable" : 1,
					"patching_rect" : [ 383.461217555734834, 383.056615352630615, 44.0, 15.0 ],
					"saved_attribute_attributes" : 					{
						"valueof" : 						{
							"parameter_longname" : "bank_device_right",
							"parameter_invisible" : 2,
							"parameter_mmax" : 1,
							"parameter_shortname" : "bank_device_right",
							"parameter_enum" : [ "val1", "val2" ],
							"parameter_defer" : 1,
							"parameter_type" : 2,
							"parameter_linknames" : 1
						}

					}
,
					"text" : "bank device>",
					"textcolor" : [ 0.996078431372549, 0.996078431372549, 0.996078431372549, 1.0 ],
					"textoffcolor" : [ 0.996078431372549, 0.996078431372549, 0.996078431372549, 1.0 ],
					"varname" : "bank_device_right"
				}

			}
, 			{
				"box" : 				{
					"activetextcolor" : [ 0.996078431372549, 0.996078431372549, 0.996078431372549, 1.0 ],
					"activetextoncolor" : [ 0.996078431372549, 0.996078431372549, 0.996078431372549, 1.0 ],
					"fontsize" : 8.0,
					"id" : "obj-107",
					"maxclass" : "live.text",
					"mode" : 0,
					"numinlets" : 1,
					"numoutlets" : 2,
					"outlettype" : [ "", "" ],
					"parameter_enable" : 1,
					"patching_rect" : [ 328.974145037156575, 383.0, 44.0, 15.0 ],
					"saved_attribute_attributes" : 					{
						"valueof" : 						{
							"parameter_longname" : "bank_device_left",
							"parameter_invisible" : 2,
							"parameter_mmax" : 1,
							"parameter_shortname" : "bank_device_left",
							"parameter_enum" : [ "val1", "val2" ],
							"parameter_defer" : 1,
							"parameter_type" : 2,
							"parameter_linknames" : 1
						}

					}
,
					"text" : "< bank device",
					"textcolor" : [ 0.996078431372549, 0.996078431372549, 0.996078431372549, 1.0 ],
					"textoffcolor" : [ 0.996078431372549, 0.996078431372549, 0.996078431372549, 1.0 ],
					"varname" : "bank_device_left"
				}

			}
, 			{
				"box" : 				{
					"id" : "obj-86",
					"maxclass" : "newobj",
					"numinlets" : 1,
					"numoutlets" : 1,
					"outlettype" : [ "" ],
					"patching_rect" : [ 20.0, 291.0, 190.0, 22.0 ],
					"text" : "prepend from_parameter_controls"
				}

			}
, 			{
				"box" : 				{
					"id" : "obj-84",
					"maxclass" : "message",
					"numinlets" : 2,
					"numoutlets" : 1,
					"outlettype" : [ "" ],
					"patching_rect" : [ 220.0, 441.0, 45.0, 22.0 ],
					"text" : "$1 127"
				}

			}
, 			{
				"box" : 				{
					"id" : "obj-85",
					"maxclass" : "newobj",
					"numinlets" : 1,
					"numoutlets" : 1,
					"outlettype" : [ "" ],
					"patching_rect" : [ 220.0, 478.0, 195.0, 22.0 ],
					"text" : "prepend call_function receive_note"
				}

			}
, 			{
				"box" : 				{
					"id" : "obj-83",
					"maxclass" : "newobj",
					"numinlets" : 4,
					"numoutlets" : 1,
					"outlettype" : [ "list" ],
					"patching_rect" : [ 220.0, 413.0, 182.461217555734834, 22.0 ],
					"text" : "funnel 4 43"
				}

			}
, 			{
				"box" : 				{
					"activetextcolor" : [ 0.996078431372549, 0.996078431372549, 0.996078431372549, 1.0 ],
					"activetextoncolor" : [ 0.996078431372549, 0.996078431372549, 0.996078431372549, 1.0 ],
					"fontsize" : 8.0,
					"id" : "obj-82",
					"maxclass" : "live.text",
					"mode" : 0,
					"numinlets" : 1,
					"numoutlets" : 2,
					"outlettype" : [ "", "" ],
					"parameter_enable" : 1,
					"patching_rect" : [ 274.487072518578259, 383.0, 44.0, 15.0 ],
					"saved_attribute_attributes" : 					{
						"valueof" : 						{
							"parameter_longname" : "bank_up",
							"parameter_invisible" : 2,
							"parameter_mmax" : 1,
							"parameter_shortname" : "bank_up",
							"parameter_enum" : [ "val1", "val2" ],
							"parameter_defer" : 1,
							"parameter_type" : 2,
							"parameter_linknames" : 1
						}

					}
,
					"text" : "Bank >",
					"textcolor" : [ 0.996078431372549, 0.996078431372549, 0.996078431372549, 1.0 ],
					"textoffcolor" : [ 0.996078431372549, 0.996078431372549, 0.996078431372549, 1.0 ],
					"varname" : "bank_up"
				}

			}
, 			{
				"box" : 				{
					"activetextcolor" : [ 0.996078431372549, 0.996078431372549, 0.996078431372549, 1.0 ],
					"activetextoncolor" : [ 0.996078431372549, 0.996078431372549, 0.996078431372549, 1.0 ],
					"fontsize" : 8.0,
					"id" : "obj-81",
					"maxclass" : "live.text",
					"mode" : 0,
					"numinlets" : 1,
					"numoutlets" : 2,
					"outlettype" : [ "", "" ],
					"parameter_enable" : 1,
					"patching_rect" : [ 220.0, 383.0, 44.0, 15.0 ],
					"saved_attribute_attributes" : 					{
						"valueof" : 						{
							"parameter_longname" : "bank_down",
							"parameter_invisible" : 2,
							"parameter_mmax" : 1,
							"parameter_shortname" : "bank_down",
							"parameter_enum" : [ "val1", "val2" ],
							"parameter_defer" : 1,
							"parameter_type" : 2,
							"parameter_linknames" : 1
						}

					}
,
					"text" : "< Bank",
					"textcolor" : [ 0.996078431372549, 0.996078431372549, 0.996078431372549, 1.0 ],
					"textoffcolor" : [ 0.996078431372549, 0.996078431372549, 0.996078431372549, 1.0 ],
					"varname" : "bank_down"
				}

			}
, 			{
				"box" : 				{
					"comment" : "",
					"id" : "obj-56",
					"index" : 0,
					"maxclass" : "outlet",
					"numinlets" : 1,
					"numoutlets" : 0,
					"patching_rect" : [ 62.0, 517.0, 30.0, 30.0 ]
				}

			}
, 			{
				"box" : 				{
					"id" : "obj-55",
					"maxclass" : "newobj",
					"numinlets" : 1,
					"numoutlets" : 1,
					"outlettype" : [ "" ],
					"patching_rect" : [ 94.0, 422.0, 81.0, 22.0 ],
					"text" : "prepend goto"
				}

			}
, 			{
				"box" : 				{
					"activebgcolor" : [ 0.65098, 0.666667, 0.662745, 1.0 ],
					"activebgoncolor" : [ 0.317647, 0.654902, 0.976471, 1.0 ],
					"activetextoncolor" : [ 1.0, 1.0, 1.0, 1.0 ],
					"automation" : "goto",
					"automationon" : "goto",
					"bgcolor" : [ 0.65098, 0.666667, 0.662745, 1.0 ],
					"bgoncolor" : [ 0.317647, 0.654902, 0.976471, 1.0 ],
					"bordercolor" : [ 0.0, 0.0, 0.0, 1.0 ],
					"id" : "obj-54",
					"maxclass" : "live.text",
					"mode" : 0,
					"numinlets" : 1,
					"numoutlets" : 2,
					"outlettype" : [ "", "" ],
					"parameter_enable" : 1,
					"patching_rect" : [ 94.0, 384.0, 40.0, 20.0 ],
					"presentation" : 1,
					"presentation_rect" : [ 427.0, 5.0, 57.0, 20.0 ],
					"saved_attribute_attributes" : 					{
						"valueof" : 						{
							"parameter_longname" : "goto",
							"parameter_invisible" : 2,
							"parameter_mmax" : 1,
							"parameter_shortname" : "goto",
							"parameter_enum" : [ "goto", "goto" ],
							"parameter_type" : 2,
							"parameter_linknames" : 1
						}

					}
,
					"text" : "goto",
					"varname" : "goto"
				}

			}
, 			{
				"box" : 				{
					"id" : "obj-33",
					"maxclass" : "newobj",
					"numinlets" : 1,
					"numoutlets" : 1,
					"outlettype" : [ "" ],
					"patching_rect" : [ 62.0, 478.0, 145.0, 22.0 ],
					"text" : "prepend paramControl_in"
				}

			}
, 			{
				"box" : 				{
					"id" : "obj-3",
					"maxclass" : "newobj",
					"numinlets" : 1,
					"numoutlets" : 1,
					"outlettype" : [ "" ],
					"patching_rect" : [ 62.0, 352.0, 99.0, 22.0 ],
					"text" : "prepend position"
				}

			}
, 			{
				"box" : 				{
					"id" : "obj-41",
					"maxclass" : "newobj",
					"numinlets" : 1,
					"numoutlets" : 3,
					"outlettype" : [ "", "", "" ],
					"patching_rect" : [ 430.516773111290377, 478.0, 130.000060999999988, 22.0 ],
					"restore" : [ 0 ],
					"saved_object_attributes" : 					{
						"parameter_enable" : 0,
						"parameter_mappable" : 0
					}
,
					"text" : "pattr window_position",
					"varname" : "window_position"
				}

			}
, 			{
				"box" : 				{
					"fontsize" : 12.0,
					"id" : "obj-1",
					"maxclass" : "comment",
					"numinlets" : 1,
					"numoutlets" : 0,
					"patching_rect" : [ 48.5, 172.0, 57.0, 20.0 ],
					"presentation" : 1,
					"presentation_rect" : [ 14.0, 5.0, 411.0, 20.0 ],
					"textcolor" : [ 1.0, 1.0, 1.0, 1.0 ],
					"varname" : "device_name"
				}

			}
, 			{
				"box" : 				{
					"fontsize" : 8.0,
					"id" : "obj-80",
					"maxclass" : "comment",
					"numinlets" : 1,
					"numoutlets" : 0,
					"patching_rect" : [ 462.5, 262.0, 57.0, 15.0 ],
					"presentation" : 1,
					"presentation_rect" : [ 427.0, 197.0, 57.0, 15.0 ],
					"textcolor" : [ 1.0, 1.0, 1.0, 1.0 ],
					"varname" : "value[15]"
				}

			}
, 			{
				"box" : 				{
					"fontsize" : 8.0,
					"id" : "obj-79",
					"maxclass" : "comment",
					"numinlets" : 1,
					"numoutlets" : 0,
					"patching_rect" : [ 403.5, 262.0, 57.0, 15.0 ],
					"presentation" : 1,
					"presentation_rect" : [ 368.0, 197.0, 57.0, 15.0 ],
					"textcolor" : [ 1.0, 1.0, 1.0, 1.0 ],
					"varname" : "value[14]"
				}

			}
, 			{
				"box" : 				{
					"fontsize" : 8.0,
					"id" : "obj-78",
					"maxclass" : "comment",
					"numinlets" : 1,
					"numoutlets" : 0,
					"patching_rect" : [ 344.5, 262.0, 57.0, 15.0 ],
					"presentation" : 1,
					"presentation_rect" : [ 309.0, 197.0, 57.0, 15.0 ],
					"textcolor" : [ 1.0, 1.0, 1.0, 1.0 ],
					"varname" : "value[13]"
				}

			}
, 			{
				"box" : 				{
					"fontsize" : 8.0,
					"id" : "obj-77",
					"maxclass" : "comment",
					"numinlets" : 1,
					"numoutlets" : 0,
					"patching_rect" : [ 285.5, 262.0, 57.0, 15.0 ],
					"presentation" : 1,
					"presentation_rect" : [ 250.0, 197.0, 57.0, 15.0 ],
					"textcolor" : [ 1.0, 1.0, 1.0, 1.0 ],
					"varname" : "value[12]"
				}

			}
, 			{
				"box" : 				{
					"fontsize" : 8.0,
					"id" : "obj-76",
					"maxclass" : "comment",
					"numinlets" : 1,
					"numoutlets" : 0,
					"patching_rect" : [ 226.5, 262.0, 57.0, 15.0 ],
					"presentation" : 1,
					"presentation_rect" : [ 191.0, 197.0, 57.0, 15.0 ],
					"textcolor" : [ 1.0, 1.0, 1.0, 1.0 ],
					"varname" : "value[11]"
				}

			}
, 			{
				"box" : 				{
					"fontsize" : 8.0,
					"id" : "obj-75",
					"maxclass" : "comment",
					"numinlets" : 1,
					"numoutlets" : 0,
					"patching_rect" : [ 167.5, 262.0, 57.0, 15.0 ],
					"presentation" : 1,
					"presentation_rect" : [ 132.0, 197.0, 57.0, 15.0 ],
					"textcolor" : [ 1.0, 1.0, 1.0, 1.0 ],
					"varname" : "value[10]"
				}

			}
, 			{
				"box" : 				{
					"fontsize" : 8.0,
					"id" : "obj-74",
					"maxclass" : "comment",
					"numinlets" : 1,
					"numoutlets" : 0,
					"patching_rect" : [ 108.5, 262.0, 57.0, 15.0 ],
					"presentation" : 1,
					"presentation_rect" : [ 73.0, 197.0, 57.0, 15.0 ],
					"textcolor" : [ 1.0, 1.0, 1.0, 1.0 ],
					"varname" : "value[9]"
				}

			}
, 			{
				"box" : 				{
					"fontsize" : 8.0,
					"id" : "obj-73",
					"maxclass" : "comment",
					"numinlets" : 1,
					"numoutlets" : 0,
					"patching_rect" : [ 48.5, 262.0, 57.0, 15.0 ],
					"presentation" : 1,
					"presentation_rect" : [ 14.0, 197.0, 57.0, 15.0 ],
					"textcolor" : [ 1.0, 1.0, 1.0, 1.0 ],
					"varname" : "value[8]"
				}

			}
, 			{
				"box" : 				{
					"fontsize" : 8.0,
					"id" : "obj-72",
					"maxclass" : "comment",
					"numinlets" : 1,
					"numoutlets" : 0,
					"patching_rect" : [ 462.5, 245.0, 57.0, 15.0 ],
					"presentation" : 1,
					"presentation_rect" : [ 427.0, 180.0, 57.0, 15.0 ],
					"textcolor" : [ 1.0, 1.0, 1.0, 1.0 ],
					"varname" : "name[15]"
				}

			}
, 			{
				"box" : 				{
					"fontsize" : 8.0,
					"id" : "obj-71",
					"maxclass" : "comment",
					"numinlets" : 1,
					"numoutlets" : 0,
					"patching_rect" : [ 403.5, 245.0, 57.0, 15.0 ],
					"presentation" : 1,
					"presentation_rect" : [ 368.0, 180.0, 57.0, 15.0 ],
					"textcolor" : [ 1.0, 1.0, 1.0, 1.0 ],
					"varname" : "name[14]"
				}

			}
, 			{
				"box" : 				{
					"fontsize" : 8.0,
					"id" : "obj-70",
					"maxclass" : "comment",
					"numinlets" : 1,
					"numoutlets" : 0,
					"patching_rect" : [ 344.5, 245.0, 57.0, 15.0 ],
					"presentation" : 1,
					"presentation_rect" : [ 309.0, 180.0, 57.0, 15.0 ],
					"textcolor" : [ 1.0, 1.0, 1.0, 1.0 ],
					"varname" : "name[13]"
				}

			}
, 			{
				"box" : 				{
					"fontsize" : 8.0,
					"id" : "obj-69",
					"maxclass" : "comment",
					"numinlets" : 1,
					"numoutlets" : 0,
					"patching_rect" : [ 285.5, 245.0, 57.0, 15.0 ],
					"presentation" : 1,
					"presentation_rect" : [ 250.0, 180.0, 57.0, 15.0 ],
					"textcolor" : [ 1.0, 1.0, 1.0, 1.0 ],
					"varname" : "name[12]"
				}

			}
, 			{
				"box" : 				{
					"fontsize" : 8.0,
					"id" : "obj-68",
					"maxclass" : "comment",
					"numinlets" : 1,
					"numoutlets" : 0,
					"patching_rect" : [ 226.5, 245.0, 57.0, 15.0 ],
					"presentation" : 1,
					"presentation_rect" : [ 191.0, 180.0, 57.0, 15.0 ],
					"textcolor" : [ 1.0, 1.0, 1.0, 1.0 ],
					"varname" : "name[11]"
				}

			}
, 			{
				"box" : 				{
					"fontsize" : 8.0,
					"id" : "obj-67",
					"maxclass" : "comment",
					"numinlets" : 1,
					"numoutlets" : 0,
					"patching_rect" : [ 167.5, 245.0, 57.0, 15.0 ],
					"presentation" : 1,
					"presentation_rect" : [ 132.0, 180.0, 57.0, 15.0 ],
					"textcolor" : [ 1.0, 1.0, 1.0, 1.0 ],
					"varname" : "name[10]"
				}

			}
, 			{
				"box" : 				{
					"fontsize" : 8.0,
					"id" : "obj-66",
					"maxclass" : "comment",
					"numinlets" : 1,
					"numoutlets" : 0,
					"patching_rect" : [ 108.5, 245.0, 57.0, 15.0 ],
					"presentation" : 1,
					"presentation_rect" : [ 73.0, 180.0, 57.0, 15.0 ],
					"textcolor" : [ 1.0, 1.0, 1.0, 1.0 ],
					"varname" : "name[9]"
				}

			}
, 			{
				"box" : 				{
					"fontsize" : 8.0,
					"id" : "obj-65",
					"maxclass" : "comment",
					"numinlets" : 1,
					"numoutlets" : 0,
					"patching_rect" : [ 48.5, 245.0, 57.0, 15.0 ],
					"presentation" : 1,
					"presentation_rect" : [ 14.0, 180.0, 57.0, 15.0 ],
					"textcolor" : [ 1.0, 1.0, 1.0, 1.0 ],
					"varname" : "name[8]"
				}

			}
, 			{
				"box" : 				{
					"bgcolor" : [ 0.290196, 0.309804, 0.301961, 0.0 ],
					"degrees" : 320,
					"id" : "obj-64",
					"jspainterfile" : "dial_override.js",
					"maxclass" : "dial",
					"needlecolor" : [ 1.0, 1.0, 1.0, 1.0 ],
					"numinlets" : 1,
					"numoutlets" : 1,
					"outlettype" : [ "float" ],
					"outlinecolor" : [ 0.317647, 0.654902, 0.976471, 1.0 ],
					"parameter_enable" : 1,
					"patching_rect" : [ 905.0, 61.0, 57.0, 57.0 ],
					"presentation" : 1,
					"presentation_rect" : [ 427.0, 121.0, 57.0, 57.0 ],
					"saved_attribute_attributes" : 					{
						"valueof" : 						{
							"parameter_longname" : "paramDial[15]",
							"parameter_invisible" : 1,
							"parameter_shortname" : "paramDial[15]",
							"parameter_defer" : 1,
							"parameter_type" : 0
						}

					}
,
					"thickness" : 100.0,
					"varname" : "paramDial[15]"
				}

			}
, 			{
				"box" : 				{
					"bgcolor" : [ 0.290196, 0.309804, 0.301961, 0.0 ],
					"degrees" : 320,
					"id" : "obj-63",
					"jspainterfile" : "dial_override.js",
					"maxclass" : "dial",
					"needlecolor" : [ 1.0, 1.0, 1.0, 1.0 ],
					"numinlets" : 1,
					"numoutlets" : 1,
					"outlettype" : [ "float" ],
					"outlinecolor" : [ 0.317647, 0.654902, 0.976471, 1.0 ],
					"parameter_enable" : 1,
					"patching_rect" : [ 846.0, 61.0, 57.0, 57.0 ],
					"presentation" : 1,
					"presentation_rect" : [ 368.0, 121.0, 57.0, 57.0 ],
					"saved_attribute_attributes" : 					{
						"valueof" : 						{
							"parameter_longname" : "paramDial[14]",
							"parameter_invisible" : 1,
							"parameter_shortname" : "paramDial[14]",
							"parameter_defer" : 1,
							"parameter_type" : 0
						}

					}
,
					"thickness" : 100.0,
					"varname" : "paramDial[14]"
				}

			}
, 			{
				"box" : 				{
					"bgcolor" : [ 0.290196, 0.309804, 0.301961, 0.0 ],
					"degrees" : 320,
					"id" : "obj-62",
					"jspainterfile" : "dial_override.js",
					"maxclass" : "dial",
					"needlecolor" : [ 1.0, 1.0, 1.0, 1.0 ],
					"numinlets" : 1,
					"numoutlets" : 1,
					"outlettype" : [ "float" ],
					"outlinecolor" : [ 0.317647, 0.654902, 0.976471, 1.0 ],
					"parameter_enable" : 1,
					"patching_rect" : [ 787.0, 61.0, 57.0, 57.0 ],
					"presentation" : 1,
					"presentation_rect" : [ 309.0, 121.0, 57.0, 57.0 ],
					"saved_attribute_attributes" : 					{
						"valueof" : 						{
							"parameter_longname" : "paramDial[13]",
							"parameter_invisible" : 1,
							"parameter_shortname" : "paramDial[13]",
							"parameter_defer" : 1,
							"parameter_type" : 0
						}

					}
,
					"thickness" : 100.0,
					"varname" : "paramDial[13]"
				}

			}
, 			{
				"box" : 				{
					"bgcolor" : [ 0.290196, 0.309804, 0.301961, 0.0 ],
					"degrees" : 320,
					"id" : "obj-61",
					"jspainterfile" : "dial_override.js",
					"maxclass" : "dial",
					"needlecolor" : [ 1.0, 1.0, 1.0, 1.0 ],
					"numinlets" : 1,
					"numoutlets" : 1,
					"outlettype" : [ "float" ],
					"outlinecolor" : [ 0.317647, 0.654902, 0.976471, 1.0 ],
					"parameter_enable" : 1,
					"patching_rect" : [ 728.0, 61.0, 57.0, 57.0 ],
					"presentation" : 1,
					"presentation_rect" : [ 250.0, 121.0, 57.0, 57.0 ],
					"saved_attribute_attributes" : 					{
						"valueof" : 						{
							"parameter_longname" : "paramDial[12]",
							"parameter_invisible" : 1,
							"parameter_shortname" : "paramDial[12]",
							"parameter_defer" : 1,
							"parameter_type" : 0
						}

					}
,
					"thickness" : 100.0,
					"varname" : "paramDial[12]"
				}

			}
, 			{
				"box" : 				{
					"bgcolor" : [ 0.290196, 0.309804, 0.301961, 0.0 ],
					"degrees" : 320,
					"id" : "obj-60",
					"jspainterfile" : "dial_override.js",
					"maxclass" : "dial",
					"needlecolor" : [ 1.0, 1.0, 1.0, 1.0 ],
					"numinlets" : 1,
					"numoutlets" : 1,
					"outlettype" : [ "float" ],
					"outlinecolor" : [ 0.317647, 0.654902, 0.976471, 1.0 ],
					"parameter_enable" : 1,
					"patching_rect" : [ 669.0, 61.0, 57.0, 57.0 ],
					"presentation" : 1,
					"presentation_rect" : [ 191.0, 121.0, 57.0, 57.0 ],
					"saved_attribute_attributes" : 					{
						"valueof" : 						{
							"parameter_longname" : "paramDial[11]",
							"parameter_invisible" : 1,
							"parameter_shortname" : "paramDial[11]",
							"parameter_defer" : 1,
							"parameter_type" : 0
						}

					}
,
					"thickness" : 100.0,
					"varname" : "paramDial[11]"
				}

			}
, 			{
				"box" : 				{
					"bgcolor" : [ 0.290196, 0.309804, 0.301961, 0.0 ],
					"degrees" : 320,
					"id" : "obj-59",
					"jspainterfile" : "dial_override.js",
					"maxclass" : "dial",
					"needlecolor" : [ 1.0, 1.0, 1.0, 1.0 ],
					"numinlets" : 1,
					"numoutlets" : 1,
					"outlettype" : [ "float" ],
					"outlinecolor" : [ 0.317647, 0.654902, 0.976471, 1.0 ],
					"parameter_enable" : 1,
					"patching_rect" : [ 610.0, 61.0, 57.0, 57.0 ],
					"presentation" : 1,
					"presentation_rect" : [ 132.0, 121.0, 57.0, 57.0 ],
					"saved_attribute_attributes" : 					{
						"valueof" : 						{
							"parameter_longname" : "paramDial[10]",
							"parameter_invisible" : 1,
							"parameter_shortname" : "paramDial[10]",
							"parameter_defer" : 1,
							"parameter_type" : 0
						}

					}
,
					"thickness" : 100.0,
					"varname" : "paramDial[10]"
				}

			}
, 			{
				"box" : 				{
					"bgcolor" : [ 0.290196, 0.309804, 0.301961, 0.0 ],
					"degrees" : 320,
					"id" : "obj-58",
					"jspainterfile" : "dial_override.js",
					"maxclass" : "dial",
					"needlecolor" : [ 1.0, 1.0, 1.0, 1.0 ],
					"numinlets" : 1,
					"numoutlets" : 1,
					"outlettype" : [ "float" ],
					"outlinecolor" : [ 0.317647, 0.654902, 0.976471, 1.0 ],
					"parameter_enable" : 1,
					"patching_rect" : [ 551.0, 61.0, 57.0, 57.0 ],
					"presentation" : 1,
					"presentation_rect" : [ 73.0, 121.0, 57.0, 57.0 ],
					"saved_attribute_attributes" : 					{
						"valueof" : 						{
							"parameter_longname" : "paramDial[9]",
							"parameter_invisible" : 1,
							"parameter_shortname" : "paramDial[9]",
							"parameter_defer" : 1,
							"parameter_type" : 0
						}

					}
,
					"thickness" : 100.0,
					"varname" : "paramDial[9]"
				}

			}
, 			{
				"box" : 				{
					"bgcolor" : [ 0.290196, 0.309804, 0.301961, 0.0 ],
					"degrees" : 320,
					"id" : "obj-57",
					"jspainterfile" : "dial_override.js",
					"maxclass" : "dial",
					"needlecolor" : [ 1.0, 1.0, 1.0, 1.0 ],
					"numinlets" : 1,
					"numoutlets" : 1,
					"outlettype" : [ "float" ],
					"outlinecolor" : [ 0.317647, 0.654902, 0.976471, 1.0 ],
					"parameter_enable" : 1,
					"patching_rect" : [ 492.0, 61.0, 57.0, 57.0 ],
					"presentation" : 1,
					"presentation_rect" : [ 14.0, 121.0, 57.0, 57.0 ],
					"saved_attribute_attributes" : 					{
						"valueof" : 						{
							"parameter_longname" : "paramDial[8]",
							"parameter_invisible" : 1,
							"parameter_shortname" : "paramDial[8]",
							"parameter_defer" : 1,
							"parameter_type" : 0
						}

					}
,
					"thickness" : 100.0,
					"varname" : "paramDial[8]"
				}

			}
, 			{
				"box" : 				{
					"id" : "obj-32",
					"maxclass" : "newobj",
					"numinlets" : 1,
					"numoutlets" : 2,
					"outlettype" : [ "", "" ],
					"patching_rect" : [ 62.0, 318.0, 69.0, 22.0 ],
					"save" : [ "#N", "thispatcher", ";", "#Q", "end", ";" ],
					"text" : "thispatcher",
					"varname" : "parameter_controls_thispatcher"
				}

			}
, 			{
				"box" : 				{
					"comment" : "",
					"id" : "obj-31",
					"index" : 0,
					"maxclass" : "inlet",
					"numinlets" : 0,
					"numoutlets" : 1,
					"outlettype" : [ "" ],
					"patching_rect" : [ 20.0, 11.0, 30.0, 30.0 ]
				}

			}
, 			{
				"box" : 				{
					"comment" : "",
					"id" : "obj-30",
					"index" : 0,
					"maxclass" : "outlet",
					"numinlets" : 1,
					"numoutlets" : 0,
					"patching_rect" : [ 20.0, 517.0, 30.0, 30.0 ]
				}

			}
, 			{
				"box" : 				{
					"id" : "obj-29",
					"maxclass" : "newobj",
					"numinlets" : 16,
					"numoutlets" : 1,
					"outlettype" : [ "list" ],
					"patching_rect" : [ 20.0, 136.0, 904.0, 22.0 ],
					"text" : "funnel 16"
				}

			}
, 			{
				"box" : 				{
					"fontsize" : 8.0,
					"id" : "obj-28",
					"maxclass" : "comment",
					"numinlets" : 1,
					"numoutlets" : 0,
					"patching_rect" : [ 461.5, 220.0, 57.0, 15.0 ],
					"presentation" : 1,
					"presentation_rect" : [ 427.0, 104.0, 57.0, 15.0 ],
					"textcolor" : [ 1.0, 1.0, 1.0, 1.0 ],
					"varname" : "value[7]"
				}

			}
, 			{
				"box" : 				{
					"fontsize" : 8.0,
					"id" : "obj-27",
					"maxclass" : "comment",
					"numinlets" : 1,
					"numoutlets" : 0,
					"patching_rect" : [ 402.5, 220.0, 57.0, 15.0 ],
					"presentation" : 1,
					"presentation_rect" : [ 368.0, 104.0, 57.0, 15.0 ],
					"textcolor" : [ 1.0, 1.0, 1.0, 1.0 ],
					"varname" : "value[6]"
				}

			}
, 			{
				"box" : 				{
					"fontsize" : 8.0,
					"id" : "obj-26",
					"maxclass" : "comment",
					"numinlets" : 1,
					"numoutlets" : 0,
					"patching_rect" : [ 343.5, 220.0, 57.0, 15.0 ],
					"presentation" : 1,
					"presentation_rect" : [ 309.0, 104.0, 57.0, 15.0 ],
					"textcolor" : [ 1.0, 1.0, 1.0, 1.0 ],
					"varname" : "value[5]"
				}

			}
, 			{
				"box" : 				{
					"fontsize" : 8.0,
					"id" : "obj-25",
					"maxclass" : "comment",
					"numinlets" : 1,
					"numoutlets" : 0,
					"patching_rect" : [ 284.5, 220.0, 57.0, 15.0 ],
					"presentation" : 1,
					"presentation_rect" : [ 250.0, 104.0, 57.0, 15.0 ],
					"textcolor" : [ 1.0, 1.0, 1.0, 1.0 ],
					"varname" : "value[4]"
				}

			}
, 			{
				"box" : 				{
					"fontsize" : 8.0,
					"id" : "obj-24",
					"maxclass" : "comment",
					"numinlets" : 1,
					"numoutlets" : 0,
					"patching_rect" : [ 225.5, 220.0, 57.0, 15.0 ],
					"presentation" : 1,
					"presentation_rect" : [ 191.0, 104.0, 57.0, 15.0 ],
					"textcolor" : [ 1.0, 1.0, 1.0, 1.0 ],
					"varname" : "value[3]"
				}

			}
, 			{
				"box" : 				{
					"fontsize" : 8.0,
					"id" : "obj-23",
					"maxclass" : "comment",
					"numinlets" : 1,
					"numoutlets" : 0,
					"patching_rect" : [ 166.5, 220.0, 57.0, 15.0 ],
					"presentation" : 1,
					"presentation_rect" : [ 132.0, 104.0, 57.0, 15.0 ],
					"textcolor" : [ 1.0, 1.0, 1.0, 1.0 ],
					"varname" : "value[2]"
				}

			}
, 			{
				"box" : 				{
					"fontsize" : 8.0,
					"id" : "obj-22",
					"maxclass" : "comment",
					"numinlets" : 1,
					"numoutlets" : 0,
					"patching_rect" : [ 107.5, 220.0, 57.0, 15.0 ],
					"presentation" : 1,
					"presentation_rect" : [ 73.0, 104.0, 57.0, 15.0 ],
					"textcolor" : [ 1.0, 1.0, 1.0, 1.0 ],
					"varname" : "value[1]"
				}

			}
, 			{
				"box" : 				{
					"fontsize" : 8.0,
					"id" : "obj-21",
					"maxclass" : "comment",
					"numinlets" : 1,
					"numoutlets" : 0,
					"patching_rect" : [ 48.5, 220.0, 57.0, 15.0 ],
					"presentation" : 1,
					"presentation_rect" : [ 14.0, 104.0, 57.0, 15.0 ],
					"textcolor" : [ 1.0, 1.0, 1.0, 1.0 ],
					"varname" : "value[0]"
				}

			}
, 			{
				"box" : 				{
					"fontsize" : 8.0,
					"id" : "obj-20",
					"maxclass" : "comment",
					"numinlets" : 1,
					"numoutlets" : 0,
					"patching_rect" : [ 461.5, 203.0, 57.0, 15.0 ],
					"presentation" : 1,
					"presentation_rect" : [ 427.0, 87.0, 57.0, 15.0 ],
					"textcolor" : [ 1.0, 1.0, 1.0, 1.0 ],
					"varname" : "name[7]"
				}

			}
, 			{
				"box" : 				{
					"fontsize" : 8.0,
					"id" : "obj-19",
					"maxclass" : "comment",
					"numinlets" : 1,
					"numoutlets" : 0,
					"patching_rect" : [ 402.5, 203.0, 57.0, 15.0 ],
					"presentation" : 1,
					"presentation_rect" : [ 368.0, 87.0, 57.0, 15.0 ],
					"textcolor" : [ 1.0, 1.0, 1.0, 1.0 ],
					"varname" : "name[6]"
				}

			}
, 			{
				"box" : 				{
					"fontsize" : 8.0,
					"id" : "obj-18",
					"maxclass" : "comment",
					"numinlets" : 1,
					"numoutlets" : 0,
					"patching_rect" : [ 343.5, 203.0, 57.0, 15.0 ],
					"presentation" : 1,
					"presentation_rect" : [ 309.0, 87.0, 57.0, 15.0 ],
					"textcolor" : [ 1.0, 1.0, 1.0, 1.0 ],
					"varname" : "name[5]"
				}

			}
, 			{
				"box" : 				{
					"fontsize" : 8.0,
					"id" : "obj-17",
					"maxclass" : "comment",
					"numinlets" : 1,
					"numoutlets" : 0,
					"patching_rect" : [ 284.5, 203.0, 57.0, 15.0 ],
					"presentation" : 1,
					"presentation_rect" : [ 250.0, 87.0, 57.0, 15.0 ],
					"textcolor" : [ 1.0, 1.0, 1.0, 1.0 ],
					"varname" : "name[4]"
				}

			}
, 			{
				"box" : 				{
					"fontsize" : 8.0,
					"id" : "obj-16",
					"maxclass" : "comment",
					"numinlets" : 1,
					"numoutlets" : 0,
					"patching_rect" : [ 225.5, 203.0, 57.0, 15.0 ],
					"presentation" : 1,
					"presentation_rect" : [ 191.0, 87.0, 57.0, 15.0 ],
					"textcolor" : [ 1.0, 1.0, 1.0, 1.0 ],
					"varname" : "name[3]"
				}

			}
, 			{
				"box" : 				{
					"fontsize" : 8.0,
					"id" : "obj-15",
					"maxclass" : "comment",
					"numinlets" : 1,
					"numoutlets" : 0,
					"patching_rect" : [ 166.5, 203.0, 57.0, 15.0 ],
					"presentation" : 1,
					"presentation_rect" : [ 132.0, 87.0, 57.0, 15.0 ],
					"textcolor" : [ 1.0, 1.0, 1.0, 1.0 ],
					"varname" : "name[2]"
				}

			}
, 			{
				"box" : 				{
					"fontsize" : 8.0,
					"id" : "obj-14",
					"maxclass" : "comment",
					"numinlets" : 1,
					"numoutlets" : 0,
					"patching_rect" : [ 107.5, 203.0, 57.0, 15.0 ],
					"presentation" : 1,
					"presentation_rect" : [ 73.0, 87.0, 57.0, 15.0 ],
					"textcolor" : [ 1.0, 1.0, 1.0, 1.0 ],
					"varname" : "name[1]"
				}

			}
, 			{
				"box" : 				{
					"fontsize" : 8.0,
					"id" : "obj-13",
					"maxclass" : "comment",
					"numinlets" : 1,
					"numoutlets" : 0,
					"patching_rect" : [ 48.5, 203.0, 57.0, 15.0 ],
					"presentation" : 1,
					"presentation_rect" : [ 14.0, 87.0, 57.0, 15.0 ],
					"textcolor" : [ 1.0, 1.0, 1.0, 1.0 ],
					"varname" : "name[0]"
				}

			}
, 			{
				"box" : 				{
					"bgcolor" : [ 0.290196, 0.309804, 0.301961, 0.0 ],
					"degrees" : 320,
					"id" : "obj-11",
					"jspainterfile" : "dial_override.js",
					"maxclass" : "dial",
					"needlecolor" : [ 1.0, 1.0, 1.0, 1.0 ],
					"numinlets" : 1,
					"numoutlets" : 1,
					"outlettype" : [ "float" ],
					"outlinecolor" : [ 0.317647, 0.654902, 0.976471, 1.0 ],
					"parameter_enable" : 1,
					"patching_rect" : [ 433.0, 61.0, 57.0, 57.0 ],
					"presentation" : 1,
					"presentation_rect" : [ 427.0, 28.0, 57.0, 57.0 ],
					"saved_attribute_attributes" : 					{
						"valueof" : 						{
							"parameter_longname" : "paramDial[7]",
							"parameter_invisible" : 1,
							"parameter_shortname" : "paramDial[7]",
							"parameter_defer" : 1,
							"parameter_type" : 0
						}

					}
,
					"thickness" : 100.0,
					"varname" : "paramDial[7]"
				}

			}
, 			{
				"box" : 				{
					"bgcolor" : [ 0.290196, 0.309804, 0.301961, 0.0 ],
					"degrees" : 320,
					"id" : "obj-10",
					"jspainterfile" : "dial_override.js",
					"maxclass" : "dial",
					"needlecolor" : [ 1.0, 1.0, 1.0, 1.0 ],
					"numinlets" : 1,
					"numoutlets" : 1,
					"outlettype" : [ "float" ],
					"outlinecolor" : [ 0.317647, 0.654902, 0.976471, 1.0 ],
					"parameter_enable" : 1,
					"patching_rect" : [ 374.0, 61.0, 57.0, 57.0 ],
					"presentation" : 1,
					"presentation_rect" : [ 368.0, 28.0, 57.0, 57.0 ],
					"saved_attribute_attributes" : 					{
						"valueof" : 						{
							"parameter_longname" : "paramDial[6]",
							"parameter_invisible" : 1,
							"parameter_shortname" : "paramDial[6]",
							"parameter_defer" : 1,
							"parameter_type" : 0
						}

					}
,
					"thickness" : 100.0,
					"varname" : "paramDial[6]"
				}

			}
, 			{
				"box" : 				{
					"bgcolor" : [ 0.290196, 0.309804, 0.301961, 0.0 ],
					"degrees" : 320,
					"id" : "obj-9",
					"jspainterfile" : "dial_override.js",
					"maxclass" : "dial",
					"needlecolor" : [ 1.0, 1.0, 1.0, 1.0 ],
					"numinlets" : 1,
					"numoutlets" : 1,
					"outlettype" : [ "float" ],
					"outlinecolor" : [ 0.317647, 0.654902, 0.976471, 1.0 ],
					"parameter_enable" : 1,
					"patching_rect" : [ 315.0, 61.0, 57.0, 57.0 ],
					"presentation" : 1,
					"presentation_rect" : [ 309.0, 28.0, 57.0, 57.0 ],
					"saved_attribute_attributes" : 					{
						"valueof" : 						{
							"parameter_longname" : "paramDial[5]",
							"parameter_invisible" : 1,
							"parameter_shortname" : "paramDial[5]",
							"parameter_defer" : 1,
							"parameter_type" : 0
						}

					}
,
					"thickness" : 100.0,
					"varname" : "paramDial[5]"
				}

			}
, 			{
				"box" : 				{
					"bgcolor" : [ 0.290196, 0.309804, 0.301961, 0.0 ],
					"degrees" : 320,
					"id" : "obj-8",
					"jspainterfile" : "dial_override.js",
					"maxclass" : "dial",
					"needlecolor" : [ 1.0, 1.0, 1.0, 1.0 ],
					"numinlets" : 1,
					"numoutlets" : 1,
					"outlettype" : [ "float" ],
					"outlinecolor" : [ 0.317647, 0.654902, 0.976471, 1.0 ],
					"parameter_enable" : 1,
					"patching_rect" : [ 256.0, 61.0, 57.0, 57.0 ],
					"presentation" : 1,
					"presentation_rect" : [ 250.0, 28.0, 57.0, 57.0 ],
					"saved_attribute_attributes" : 					{
						"valueof" : 						{
							"parameter_longname" : "paramDial[4]",
							"parameter_invisible" : 1,
							"parameter_shortname" : "paramDial[4]",
							"parameter_defer" : 1,
							"parameter_type" : 0
						}

					}
,
					"thickness" : 100.0,
					"varname" : "paramDial[4]"
				}

			}
, 			{
				"box" : 				{
					"bgcolor" : [ 0.290196, 0.309804, 0.301961, 0.0 ],
					"degrees" : 320,
					"id" : "obj-7",
					"jspainterfile" : "dial_override.js",
					"maxclass" : "dial",
					"needlecolor" : [ 1.0, 1.0, 1.0, 1.0 ],
					"numinlets" : 1,
					"numoutlets" : 1,
					"outlettype" : [ "float" ],
					"outlinecolor" : [ 0.317647, 0.654902, 0.976471, 1.0 ],
					"parameter_enable" : 1,
					"patching_rect" : [ 197.0, 61.0, 57.0, 57.0 ],
					"presentation" : 1,
					"presentation_rect" : [ 191.0, 28.0, 57.0, 57.0 ],
					"saved_attribute_attributes" : 					{
						"valueof" : 						{
							"parameter_longname" : "paramDial[3]",
							"parameter_invisible" : 1,
							"parameter_shortname" : "paramDial[3]",
							"parameter_defer" : 1,
							"parameter_type" : 0
						}

					}
,
					"thickness" : 100.0,
					"varname" : "paramDial[3]"
				}

			}
, 			{
				"box" : 				{
					"bgcolor" : [ 0.290196, 0.309804, 0.301961, 0.0 ],
					"degrees" : 320,
					"id" : "obj-6",
					"jspainterfile" : "dial_override.js",
					"maxclass" : "dial",
					"needlecolor" : [ 1.0, 1.0, 1.0, 1.0 ],
					"numinlets" : 1,
					"numoutlets" : 1,
					"outlettype" : [ "float" ],
					"outlinecolor" : [ 0.317647, 0.654902, 0.976471, 1.0 ],
					"parameter_enable" : 1,
					"patching_rect" : [ 138.0, 61.0, 57.0, 57.0 ],
					"presentation" : 1,
					"presentation_rect" : [ 132.0, 28.0, 57.0, 57.0 ],
					"saved_attribute_attributes" : 					{
						"valueof" : 						{
							"parameter_longname" : "paramDial[2]",
							"parameter_invisible" : 1,
							"parameter_shortname" : "paramDial[2]",
							"parameter_defer" : 1,
							"parameter_type" : 0
						}

					}
,
					"thickness" : 100.0,
					"varname" : "paramDial[2]"
				}

			}
, 			{
				"box" : 				{
					"bgcolor" : [ 0.290196, 0.309804, 0.301961, 0.0 ],
					"degrees" : 320,
					"id" : "obj-5",
					"jspainterfile" : "dial_override.js",
					"maxclass" : "dial",
					"needlecolor" : [ 1.0, 1.0, 1.0, 1.0 ],
					"numinlets" : 1,
					"numoutlets" : 1,
					"outlettype" : [ "float" ],
					"outlinecolor" : [ 0.317647, 0.654902, 0.976471, 1.0 ],
					"parameter_enable" : 1,
					"patching_rect" : [ 79.0, 61.0, 57.0, 57.0 ],
					"presentation" : 1,
					"presentation_rect" : [ 73.0, 28.0, 57.0, 57.0 ],
					"saved_attribute_attributes" : 					{
						"valueof" : 						{
							"parameter_longname" : "paramDial[1]",
							"parameter_invisible" : 1,
							"parameter_shortname" : "paramDial[1]",
							"parameter_defer" : 1,
							"parameter_type" : 0
						}

					}
,
					"thickness" : 100.0,
					"varname" : "paramDial[1]"
				}

			}
, 			{
				"box" : 				{
					"bgcolor" : [ 0.290196, 0.309804, 0.301961, 0.0 ],
					"degrees" : 320,
					"id" : "obj-2",
					"jspainterfile" : "dial_override.js",
					"maxclass" : "dial",
					"needlecolor" : [ 1.0, 1.0, 1.0, 1.0 ],
					"numinlets" : 1,
					"numoutlets" : 1,
					"outlettype" : [ "float" ],
					"outlinecolor" : [ 0.317647, 0.654902, 0.976471, 1.0 ],
					"parameter_enable" : 1,
					"patching_rect" : [ 20.0, 61.0, 57.0, 57.0 ],
					"presentation" : 1,
					"presentation_rect" : [ 14.0, 28.0, 57.0, 57.0 ],
					"saved_attribute_attributes" : 					{
						"valueof" : 						{
							"parameter_longname" : "paramDial[0]",
							"parameter_invisible" : 1,
							"parameter_shortname" : "paramDial[0]",
							"parameter_defer" : 1,
							"parameter_type" : 0
						}

					}
,
					"thickness" : 100.0,
					"varname" : "paramDial[0]"
				}

			}
, 			{
				"box" : 				{
					"angle" : 270.0,
					"bgcolor" : [ 0.32549, 0.345098, 0.372549, 1.0 ],
					"border" : 2,
					"bordercolor" : [ 0.0, 0.0, 0.0, 1.0 ],
					"id" : "obj-44",
					"maxclass" : "panel",
					"mode" : 0,
					"numinlets" : 1,
					"numoutlets" : 0,
					"patching_rect" : [ 448.0, 548.0, 35.0, 22.0 ],
					"presentation" : 1,
					"presentation_rect" : [ 427.0, 121.0, 57.0, 92.0 ],
					"proportion" : 0.39,
					"varname" : "panel[16]"
				}

			}
, 			{
				"box" : 				{
					"angle" : 270.0,
					"bgcolor" : [ 0.32549, 0.345098, 0.372549, 1.0 ],
					"border" : 2,
					"bordercolor" : [ 0.0, 0.0, 0.0, 1.0 ],
					"id" : "obj-45",
					"maxclass" : "panel",
					"mode" : 0,
					"numinlets" : 1,
					"numoutlets" : 0,
					"patching_rect" : [ 411.0, 548.0, 35.0, 22.0 ],
					"presentation" : 1,
					"presentation_rect" : [ 368.0, 121.0, 57.0, 92.0 ],
					"proportion" : 0.39,
					"varname" : "panel[15]"
				}

			}
, 			{
				"box" : 				{
					"angle" : 270.0,
					"bgcolor" : [ 0.32549, 0.345098, 0.372549, 1.0 ],
					"border" : 2,
					"bordercolor" : [ 0.0, 0.0, 0.0, 1.0 ],
					"id" : "obj-46",
					"maxclass" : "panel",
					"mode" : 0,
					"numinlets" : 1,
					"numoutlets" : 0,
					"patching_rect" : [ 374.0, 548.0, 35.0, 22.0 ],
					"presentation" : 1,
					"presentation_rect" : [ 309.0, 121.0, 57.0, 92.0 ],
					"proportion" : 0.39,
					"varname" : "panel[14]"
				}

			}
, 			{
				"box" : 				{
					"angle" : 270.0,
					"bgcolor" : [ 0.32549, 0.345098, 0.372549, 1.0 ],
					"border" : 2,
					"bordercolor" : [ 0.0, 0.0, 0.0, 1.0 ],
					"id" : "obj-47",
					"maxclass" : "panel",
					"mode" : 0,
					"numinlets" : 1,
					"numoutlets" : 0,
					"patching_rect" : [ 337.0, 548.0, 35.0, 22.0 ],
					"presentation" : 1,
					"presentation_rect" : [ 250.0, 121.0, 57.0, 92.0 ],
					"proportion" : 0.39,
					"varname" : "panel[13]"
				}

			}
, 			{
				"box" : 				{
					"angle" : 270.0,
					"bgcolor" : [ 0.32549, 0.345098, 0.372549, 1.0 ],
					"border" : 2,
					"bordercolor" : [ 0.0, 0.0, 0.0, 1.0 ],
					"id" : "obj-48",
					"maxclass" : "panel",
					"mode" : 0,
					"numinlets" : 1,
					"numoutlets" : 0,
					"patching_rect" : [ 300.0, 548.0, 35.0, 22.0 ],
					"presentation" : 1,
					"presentation_rect" : [ 191.0, 121.0, 57.0, 92.0 ],
					"proportion" : 0.39,
					"varname" : "panel[12]"
				}

			}
, 			{
				"box" : 				{
					"angle" : 270.0,
					"bgcolor" : [ 0.32549, 0.345098, 0.372549, 1.0 ],
					"border" : 2,
					"bordercolor" : [ 0.0, 0.0, 0.0, 1.0 ],
					"id" : "obj-49",
					"maxclass" : "panel",
					"mode" : 0,
					"numinlets" : 1,
					"numoutlets" : 0,
					"patching_rect" : [ 263.0, 548.0, 35.0, 22.0 ],
					"presentation" : 1,
					"presentation_rect" : [ 132.0, 121.0, 57.0, 92.0 ],
					"proportion" : 0.39,
					"varname" : "panel[11]"
				}

			}
, 			{
				"box" : 				{
					"angle" : 270.0,
					"bgcolor" : [ 0.32549, 0.345098, 0.372549, 1.0 ],
					"border" : 2,
					"bordercolor" : [ 0.0, 0.0, 0.0, 1.0 ],
					"id" : "obj-50",
					"maxclass" : "panel",
					"mode" : 0,
					"numinlets" : 1,
					"numoutlets" : 0,
					"patching_rect" : [ 226.0, 548.0, 35.0, 22.0 ],
					"presentation" : 1,
					"presentation_rect" : [ 73.0, 121.0, 57.0, 92.0 ],
					"proportion" : 0.39,
					"varname" : "panel[10]"
				}

			}
, 			{
				"box" : 				{
					"angle" : 270.0,
					"bgcolor" : [ 0.32549, 0.345098, 0.372549, 1.0 ],
					"border" : 2,
					"bordercolor" : [ 0.0, 0.0, 0.0, 1.0 ],
					"id" : "obj-51",
					"maxclass" : "panel",
					"mode" : 0,
					"numinlets" : 1,
					"numoutlets" : 0,
					"patching_rect" : [ 189.0, 548.0, 35.0, 22.0 ],
					"presentation" : 1,
					"presentation_rect" : [ 14.0, 121.0, 57.0, 92.0 ],
					"proportion" : 0.39,
					"varname" : "panel[9]"
				}

			}
, 			{
				"box" : 				{
					"angle" : 270.0,
					"bgcolor" : [ 0.32549, 0.345098, 0.372549, 1.0 ],
					"border" : 2,
					"bordercolor" : [ 0.0, 0.0, 0.0, 1.0 ],
					"id" : "obj-39",
					"maxclass" : "panel",
					"mode" : 0,
					"numinlets" : 1,
					"numoutlets" : 0,
					"patching_rect" : [ 448.0, 524.0, 35.0, 22.0 ],
					"presentation" : 1,
					"presentation_rect" : [ 427.0, 28.0, 57.0, 92.0 ],
					"proportion" : 0.39,
					"varname" : "panel[8]"
				}

			}
, 			{
				"box" : 				{
					"angle" : 270.0,
					"bgcolor" : [ 0.32549, 0.345098, 0.372549, 1.0 ],
					"border" : 2,
					"bordercolor" : [ 0.0, 0.0, 0.0, 1.0 ],
					"id" : "obj-40",
					"maxclass" : "panel",
					"mode" : 0,
					"numinlets" : 1,
					"numoutlets" : 0,
					"patching_rect" : [ 411.0, 524.0, 35.0, 22.0 ],
					"presentation" : 1,
					"presentation_rect" : [ 368.0, 28.0, 57.0, 92.0 ],
					"proportion" : 0.39,
					"varname" : "panel[7]"
				}

			}
, 			{
				"box" : 				{
					"angle" : 270.0,
					"bgcolor" : [ 0.32549, 0.345098, 0.372549, 1.0 ],
					"border" : 2,
					"bordercolor" : [ 0.0, 0.0, 0.0, 1.0 ],
					"id" : "obj-42",
					"maxclass" : "panel",
					"mode" : 0,
					"numinlets" : 1,
					"numoutlets" : 0,
					"patching_rect" : [ 374.0, 524.0, 35.0, 22.0 ],
					"presentation" : 1,
					"presentation_rect" : [ 309.0, 28.0, 57.0, 92.0 ],
					"proportion" : 0.39,
					"varname" : "panel[6]"
				}

			}
, 			{
				"box" : 				{
					"angle" : 270.0,
					"bgcolor" : [ 0.32549, 0.345098, 0.372549, 1.0 ],
					"border" : 2,
					"bordercolor" : [ 0.0, 0.0, 0.0, 1.0 ],
					"id" : "obj-43",
					"maxclass" : "panel",
					"mode" : 0,
					"numinlets" : 1,
					"numoutlets" : 0,
					"patching_rect" : [ 337.0, 524.0, 35.0, 22.0 ],
					"presentation" : 1,
					"presentation_rect" : [ 250.0, 28.0, 57.0, 92.0 ],
					"proportion" : 0.39,
					"varname" : "panel[5]"
				}

			}
, 			{
				"box" : 				{
					"angle" : 270.0,
					"bgcolor" : [ 0.32549, 0.345098, 0.372549, 1.0 ],
					"border" : 2,
					"bordercolor" : [ 0.0, 0.0, 0.0, 1.0 ],
					"id" : "obj-38",
					"maxclass" : "panel",
					"mode" : 0,
					"numinlets" : 1,
					"numoutlets" : 0,
					"patching_rect" : [ 300.0, 524.0, 35.0, 22.0 ],
					"presentation" : 1,
					"presentation_rect" : [ 191.0, 28.0, 57.0, 92.0 ],
					"proportion" : 0.39,
					"varname" : "panel[4]"
				}

			}
, 			{
				"box" : 				{
					"angle" : 270.0,
					"bgcolor" : [ 0.32549, 0.345098, 0.372549, 1.0 ],
					"border" : 2,
					"bordercolor" : [ 0.0, 0.0, 0.0, 1.0 ],
					"id" : "obj-37",
					"maxclass" : "panel",
					"mode" : 0,
					"numinlets" : 1,
					"numoutlets" : 0,
					"patching_rect" : [ 263.0, 524.0, 35.0, 22.0 ],
					"presentation" : 1,
					"presentation_rect" : [ 132.0, 28.0, 57.0, 92.0 ],
					"proportion" : 0.39,
					"varname" : "panel[3]"
				}

			}
, 			{
				"box" : 				{
					"angle" : 270.0,
					"bgcolor" : [ 0.32549, 0.345098, 0.372549, 1.0 ],
					"border" : 2,
					"bordercolor" : [ 0.0, 0.0, 0.0, 1.0 ],
					"id" : "obj-36",
					"maxclass" : "panel",
					"mode" : 0,
					"numinlets" : 1,
					"numoutlets" : 0,
					"patching_rect" : [ 226.0, 524.0, 35.0, 22.0 ],
					"presentation" : 1,
					"presentation_rect" : [ 73.0, 28.0, 57.0, 92.0 ],
					"proportion" : 0.39,
					"varname" : "panel[2]"
				}

			}
, 			{
				"box" : 				{
					"angle" : 270.0,
					"bgcolor" : [ 0.32549, 0.345098, 0.372549, 1.0 ],
					"border" : 2,
					"bordercolor" : [ 0.0, 0.0, 0.0, 1.0 ],
					"id" : "obj-35",
					"maxclass" : "panel",
					"mode" : 0,
					"numinlets" : 1,
					"numoutlets" : 0,
					"patching_rect" : [ 189.0, 524.0, 35.0, 22.0 ],
					"presentation" : 1,
					"presentation_rect" : [ 14.0, 28.0, 57.0, 92.0 ],
					"proportion" : 0.39,
					"varname" : "panel[1]"
				}

			}
, 			{
				"box" : 				{
					"angle" : 270.0,
					"bgcolor" : [ 0.32549, 0.345098, 0.372549, 1.0 ],
					"border" : 2,
					"bordercolor" : [ 0.0, 0.0, 0.0, 1.0 ],
					"id" : "obj-53",
					"maxclass" : "panel",
					"mode" : 0,
					"numinlets" : 1,
					"numoutlets" : 0,
					"patching_rect" : [ 520.516773111290377, 524.0, 35.0, 22.0 ],
					"presentation" : 1,
					"presentation_rect" : [ 14.0, 5.0, 411.0, 20.0 ],
					"proportion" : 0.39,
					"varname" : "panel[17]"
				}

			}
, 			{
				"box" : 				{
					"angle" : 270.0,
					"bgcolor" : [ 0.239216, 0.254902, 0.278431, 1.0 ],
					"border" : 2,
					"bordercolor" : [ 0.0, 0.0, 0.0, 1.0 ],
					"id" : "obj-34",
					"maxclass" : "panel",
					"mode" : 0,
					"numinlets" : 1,
					"numoutlets" : 0,
					"patching_rect" : [ 483.516773111290377, 524.0, 35.0, 26.0 ],
					"presentation" : 1,
					"presentation_rect" : [ 7.0, 2.0, 485.0, 219.0 ],
					"proportion" : 0.39,
					"varname" : "panel[0]"
				}

			}
, 			{
				"box" : 				{
					"background" : 1,
					"id" : "obj-52",
					"ignoreclick" : 1,
					"maxclass" : "mira.frame",
					"numinlets" : 0,
					"numoutlets" : 0,
					"patching_rect" : [ 112.350103225972816, 523.0, 66.109891772270203, 47.0 ],
					"presentation" : 1,
					"presentation_rect" : [ 1.236257493495941, -9.5, 493.714298129081726, 351.0 ],
					"tabname" : "device"
				}

			}
 ],
		"lines" : [ 			{
				"patchline" : 				{
					"destination" : [ "obj-29", 6 ],
					"source" : [ "obj-10", 0 ]
				}

			}
, 			{
				"patchline" : 				{
					"destination" : [ "obj-85", 0 ],
					"midpoints" : [ 606.516773111290377, 470.5, 229.5, 470.5 ],
					"source" : [ "obj-102", 0 ]
				}

			}
, 			{
				"patchline" : 				{
					"destination" : [ "obj-83", 3 ],
					"source" : [ "obj-106", 0 ]
				}

			}
, 			{
				"patchline" : 				{
					"destination" : [ "obj-83", 2 ],
					"source" : [ "obj-107", 0 ]
				}

			}
, 			{
				"patchline" : 				{
					"destination" : [ "obj-29", 7 ],
					"source" : [ "obj-11", 0 ]
				}

			}
, 			{
				"patchline" : 				{
					"destination" : [ "obj-140", 0 ],
					"source" : [ "obj-132", 0 ]
				}

			}
, 			{
				"patchline" : 				{
					"destination" : [ "obj-143", 0 ],
					"source" : [ "obj-140", 0 ]
				}

			}
, 			{
				"patchline" : 				{
					"destination" : [ "obj-144", 0 ],
					"source" : [ "obj-140", 2 ]
				}

			}
, 			{
				"patchline" : 				{
					"destination" : [ "obj-102", 0 ],
					"order" : 0,
					"source" : [ "obj-143", 0 ]
				}

			}
, 			{
				"patchline" : 				{
					"destination" : [ "obj-110", 1 ],
					"order" : 1,
					"source" : [ "obj-143", 0 ]
				}

			}
, 			{
				"patchline" : 				{
					"destination" : [ "obj-102", 1 ],
					"source" : [ "obj-144", 0 ]
				}

			}
, 			{
				"patchline" : 				{
					"destination" : [ "obj-29", 0 ],
					"source" : [ "obj-2", 0 ]
				}

			}
, 			{
				"patchline" : 				{
					"destination" : [ "obj-86", 0 ],
					"source" : [ "obj-29", 0 ]
				}

			}
, 			{
				"patchline" : 				{
					"destination" : [ "obj-33", 0 ],
					"source" : [ "obj-3", 0 ]
				}

			}
, 			{
				"patchline" : 				{
					"destination" : [ "obj-3", 0 ],
					"source" : [ "obj-32", 0 ]
				}

			}
, 			{
				"patchline" : 				{
					"destination" : [ "obj-29", 1 ],
					"source" : [ "obj-5", 0 ]
				}

			}
, 			{
				"patchline" : 				{
					"destination" : [ "obj-55", 0 ],
					"source" : [ "obj-54", 0 ]
				}

			}
, 			{
				"patchline" : 				{
					"destination" : [ "obj-33", 0 ],
					"source" : [ "obj-55", 0 ]
				}

			}
, 			{
				"patchline" : 				{
					"destination" : [ "obj-29", 8 ],
					"source" : [ "obj-57", 0 ]
				}

			}
, 			{
				"patchline" : 				{
					"destination" : [ "obj-29", 9 ],
					"source" : [ "obj-58", 0 ]
				}

			}
, 			{
				"patchline" : 				{
					"destination" : [ "obj-29", 10 ],
					"source" : [ "obj-59", 0 ]
				}

			}
, 			{
				"patchline" : 				{
					"destination" : [ "obj-29", 2 ],
					"source" : [ "obj-6", 0 ]
				}

			}
, 			{
				"patchline" : 				{
					"destination" : [ "obj-29", 11 ],
					"source" : [ "obj-60", 0 ]
				}

			}
, 			{
				"patchline" : 				{
					"destination" : [ "obj-29", 12 ],
					"source" : [ "obj-61", 0 ]
				}

			}
, 			{
				"patchline" : 				{
					"destination" : [ "obj-29", 13 ],
					"source" : [ "obj-62", 0 ]
				}

			}
, 			{
				"patchline" : 				{
					"destination" : [ "obj-29", 14 ],
					"source" : [ "obj-63", 0 ]
				}

			}
, 			{
				"patchline" : 				{
					"destination" : [ "obj-29", 15 ],
					"source" : [ "obj-64", 0 ]
				}

			}
, 			{
				"patchline" : 				{
					"destination" : [ "obj-29", 3 ],
					"source" : [ "obj-7", 0 ]
				}

			}
, 			{
				"patchline" : 				{
					"destination" : [ "obj-29", 4 ],
					"source" : [ "obj-8", 0 ]
				}

			}
, 			{
				"patchline" : 				{
					"destination" : [ "obj-83", 0 ],
					"source" : [ "obj-81", 0 ]
				}

			}
, 			{
				"patchline" : 				{
					"destination" : [ "obj-83", 1 ],
					"source" : [ "obj-82", 0 ]
				}

			}
, 			{
				"patchline" : 				{
					"destination" : [ "obj-84", 0 ],
					"source" : [ "obj-83", 0 ]
				}

			}
, 			{
				"patchline" : 				{
					"destination" : [ "obj-85", 0 ],
					"source" : [ "obj-84", 0 ]
				}

			}
, 			{
				"patchline" : 				{
					"destination" : [ "obj-30", 0 ],
					"midpoints" : [ 229.5, 511.5, 29.5, 511.5 ],
					"source" : [ "obj-85", 0 ]
				}

			}
, 			{
				"patchline" : 				{
					"destination" : [ "obj-30", 0 ],
					"source" : [ "obj-86", 0 ]
				}

			}
, 			{
				"patchline" : 				{
					"destination" : [ "obj-29", 5 ],
					"source" : [ "obj-9", 0 ]
				}

			}
 ],
		"parameters" : 		{
			"obj-64" : [ "paramDial[15]", "paramDial[15]", 0 ],
			"obj-8" : [ "paramDial[4]", "paramDial[4]", 0 ],
			"obj-62" : [ "paramDial[13]", "paramDial[13]", 0 ],
			"obj-104" : [ "track[2]", "track[2]", 0 ],
			"obj-106" : [ "bank_device_right", "bank_device_right", 0 ],
			"obj-57" : [ "paramDial[8]", "paramDial[8]", 0 ],
			"obj-89" : [ "device_select[4]", "device_select[4]", 0 ],
			"obj-9" : [ "paramDial[5]", "paramDial[5]", 0 ],
			"obj-63" : [ "paramDial[14]", "paramDial[14]", 0 ],
			"obj-2" : [ "paramDial[0]", "paramDial[0]", 0 ],
			"obj-100" : [ "track[5]", "track[5]", 0 ],
			"obj-58" : [ "paramDial[9]", "paramDial[9]", 0 ],
			"obj-91" : [ "device_select[2]", "device_select[2]", 0 ],
			"obj-12" : [ "device_select[7]", "device_select[7]", 0 ],
			"obj-81" : [ "bank_down", "bank_down", 0 ],
			"obj-10" : [ "paramDial[6]", "paramDial[6]", 0 ],
			"obj-54" : [ "goto", "goto", 0 ],
			"obj-5" : [ "paramDial[1]", "paramDial[1]", 0 ],
			"obj-103" : [ "track[3]", "track[3]", 0 ],
			"obj-94" : [ "device_select[0]", "device_select[0]", 0 ],
			"obj-59" : [ "paramDial[10]", "paramDial[10]", 0 ],
			"obj-88" : [ "device_select[5]", "device_select[5]", 0 ],
			"obj-11" : [ "paramDial[7]", "paramDial[7]", 0 ],
			"obj-6" : [ "paramDial[2]", "paramDial[2]", 0 ],
			"obj-105" : [ "track[1]", "track[1]", 0 ],
			"obj-107" : [ "bank_device_left", "bank_device_left", 0 ],
			"obj-60" : [ "paramDial[11]", "paramDial[11]", 0 ],
			"obj-99" : [ "track[6]", "track[6]", 0 ],
			"obj-90" : [ "device_select[3]", "device_select[3]", 0 ],
			"obj-82" : [ "bank_up", "bank_up", 0 ],
			"obj-98" : [ "track[7]", "track[7]", 0 ],
			"obj-108" : [ "track[0]", "track[0]", 0 ],
			"obj-7" : [ "paramDial[3]", "paramDial[3]", 0 ],
			"obj-61" : [ "paramDial[12]", "paramDial[12]", 0 ],
			"obj-101" : [ "track[4]", "track[4]", 0 ],
			"obj-92" : [ "device_select[1]", "device_select[1]", 0 ],
			"obj-87" : [ "device_select[6]", "device_select[6]", 0 ],
			"parameterbanks" : 			{

			}

		}
,
		"dependency_cache" : [ 			{
				"name" : "mira.mt.region.maxpat",
				"bootpath" : "C74:/packages/mira/patchers",
				"type" : "JSON",
				"implicit" : 1
			}
, 			{
				"name" : "mira.multitouch.mxo",
				"type" : "iLaX"
			}
 ],
		"autosave" : 0
	}

}
